<?xml version="1.0" encoding="UTF-8" standalone="no"?>
<!-- Created with Inkscape (http://www.inkscape.org/) -->

<svg
   version="1.1"
   id="svg2"
   xml:space="preserve"
   width="793.12183"
   height="286.18451"
   viewBox="0 0 793.12183 286.18451"
   xmlns="http://www.w3.org/2000/svg"
   xmlns:svg="http://www.w3.org/2000/svg"><defs
     id="defs6"><clipPath
       clipPathUnits="userSpaceOnUse"
       id="clipPath18"><path
         d="m 84.055,307.746 c 0,-67.676 54.862,-122.537 122.537,-122.537 v 0 c 67.676,0 122.537,54.861 122.537,122.537 v 0 c 0,67.676 -54.861,122.537 -122.537,122.537 v 0 c -67.675,0 -122.537,-54.861 -122.537,-122.537 m 177.501,-29.93 c -7.061,7.252 -10.95,17.233 -10.95,28.104 v 0 c 0,10.669 3.969,20.522 11.177,27.743 v 0 c 7.236,7.251 17.146,11.243 27.904,11.243 v 0 c 18.177,0 27.732,-10.185 28.13,-10.619 v 0 l 2.09,-2.277 -1.677,-2.597 -5.959,-9.227 -2.575,-3.958 -3.492,3.182 c -0.067,0.061 -6.86,6.154 -15.94,6.154 v 0 c -9.395,0 -18.875,-6.015 -18.875,-19.452 v 0 c 0,-10.143 6.517,-20.413 18.971,-20.413 v 0 c 9.843,0 16.802,7.3 16.86,7.363 v 0 l 3.299,3.575 2.871,-3.927 6.535,-8.939 1.865,-2.551 -2.05,-2.405 c -0.434,-0.508 -10.837,-12.457 -29.861,-12.457 v 0 c -11.071,0 -21.129,4.069 -28.323,11.458 M 109.354,271.51 v 68.243 4 h 4 40.849 4.001 v -4 -10.669 -4 h -4.001 -24.451 v -9.878 h 18.973 4 v -4 -10.669 -4 h -4 -18.973 v -10.358 h 25.988 4.001 v -3.999 -10.67 -3.999 h -4.001 -42.386 -4 z"
         id="path16" /></clipPath><clipPath
       clipPathUnits="userSpaceOnUse"
       id="clipPath46"><path
         d="M 0,612 H 792 V 0 H 0 Z"
         id="path44" /></clipPath></defs><g
     id="g8"
     transform="matrix(1.3333333,0,0,-1.3333333,-130.2436,550.0629)"><g
       id="g12"><g
         id="g14"
         clip-path="url(#clipPath18)"><g
           id="g20"
           transform="translate(274.7002,327.8926)"><path
             d="m 0,0 c -4.606,13.452 -13.266,25.458 -24.589,34.017 -11.283,8.607 -25.143,13.757 -39.281,14.606 -14.134,0.893 -28.49,-2.547 -40.699,-9.675 -12.238,-7.088 -22.24,-17.902 -28.414,-30.597 -6.205,-12.68 -8.561,-27.195 -6.621,-41.152 1.89,-13.962 7.991,-27.321 17.328,-37.836 9.305,-10.545 21.789,-18.226 35.373,-21.783 13.574,-3.617 28.181,-3.053 41.433,1.532 l 0.976,-2.861 c -13.832,-4.697 -29.051,-5.19 -43.125,-1.348 -14.088,3.778 -26.978,11.821 -36.549,22.796 -9.606,10.95 -15.818,24.785 -17.684,39.198 -1.917,14.415 0.606,29.349 7.061,42.343 6.421,13.012 16.757,24.047 29.339,31.235 12.553,7.229 27.249,10.652 41.68,9.656 14.432,-0.952 28.52,-6.289 39.947,-15.113 11.47,-8.775 20.191,-21.03 24.779,-34.693 z"
             style="fill:#6ebbe4;fill-opacity:1;fill-rule:nonzero;stroke:none"
             id="path22" /></g><g
           id="g24"
           transform="translate(145.7222,245.63)"><path
             d="m 0,0 c 2.853,-2.974 5.853,-5.809 9.079,-8.374 3.249,-2.53 6.631,-4.895 10.21,-6.936 3.585,-2.021 7.29,-3.836 11.13,-5.322 3.847,-1.462 7.788,-2.671 11.801,-3.581 16.069,-3.597 33.193,-2.146 48.414,4.047 15.247,6.147 28.498,16.993 37.749,30.546 9.273,13.553 14.442,29.82 14.843,46.208 0.448,16.386 -3.889,32.875 -12.468,46.816 -8.557,13.94 -21.251,25.329 -36.121,32.079 -14.844,6.796 -31.763,8.931 -47.808,6.026 -4.011,-0.724 -7.957,-1.767 -11.822,-3.048 -3.862,-1.298 -7.598,-2.943 -11.227,-4.783 -3.626,-1.856 -7.067,-4.05 -10.387,-6.401 -3.301,-2.386 -6.388,-5.051 -9.341,-7.853 l -2.207,2.277 c 3.077,2.892 6.295,5.638 9.733,8.096 3.457,2.423 7.04,4.678 10.812,6.584 3.775,1.889 7.658,3.573 11.669,4.898 4.013,1.308 8.109,2.365 12.267,3.093 16.636,2.921 34.12,0.613 49.413,-6.487 15.326,-7.057 28.327,-18.862 37.05,-33.242 8.747,-14.387 13.098,-31.334 12.55,-48.115 -0.499,-16.784 -5.881,-33.395 -15.431,-47.195 -9.525,-13.797 -23.104,-24.784 -38.683,-30.971 -15.551,-6.23 -32.986,-7.606 -49.295,-3.865 -4.073,0.947 -8.07,2.196 -11.968,3.702 -3.891,1.529 -7.642,3.391 -11.269,5.461 -3.619,2.09 -7.037,4.506 -10.315,7.089 -3.256,2.617 -6.28,5.505 -9.152,8.531 z"
             style="fill:#6ebbe4;fill-opacity:1;fill-rule:nonzero;stroke:none"
             id="path26" /></g><g
           id="g28"
           transform="translate(131.3411,363.4565)"><path
             d="m 0,0 c -2.802,-3.72 -5.422,-7.578 -7.704,-11.638 -2.239,-4.079 -4.278,-8.274 -5.918,-12.631 -1.619,-4.361 -3.006,-8.812 -3.989,-13.361 -0.962,-4.55 -1.658,-9.158 -1.978,-13.799 -1.315,-18.563 3.015,-37.464 12.262,-53.578 9.198,-16.143 23.305,-29.411 39.917,-37.67 16.587,-8.32 35.655,-11.504 54.033,-9.133 18.384,2.325 36.01,10.197 49.933,22.384 13.962,12.137 24.231,28.46 29.046,46.293 4.871,17.819 4.306,37.065 -1.583,54.55 -1.464,4.374 -3.28,8.621 -5.336,12.744 -2.074,4.118 -4.514,8.039 -7.149,11.814 -2.657,3.767 -5.654,7.278 -8.812,10.627 -3.194,3.32 -6.663,6.361 -10.269,9.226 l 1.984,2.552 c 3.715,-2.978 7.285,-6.14 10.571,-9.588 3.249,-3.478 6.328,-7.122 9.054,-11.027 2.706,-3.914 5.205,-7.977 7.327,-12.238 2.102,-4.266 3.954,-8.658 5.443,-13.177 5.987,-18.065 6.467,-37.886 1.368,-56.196 -5.046,-18.328 -15.674,-35.031 -30.055,-47.411 -14.344,-12.435 -32.444,-20.404 -51.254,-22.691 -18.806,-2.336 -38.267,1.017 -55.148,9.586 -16.903,8.506 -31.195,22.088 -40.475,38.556 -9.327,16.437 -13.623,35.653 -12.2,54.472 0.347,4.705 1.074,9.374 2.072,13.981 1.018,4.606 2.445,9.11 4.106,13.518 1.683,4.405 3.768,8.644 6.053,12.761 2.329,4.098 4.999,7.988 7.85,11.735 z"
             style="fill:#6ebbe4;fill-opacity:1;fill-rule:nonzero;stroke:none"
             id="path30" /></g><g
           id="g32"
           transform="translate(221.0444,198.9958)"><path
             d="m 0,0 c 5.161,0.805 10.283,1.861 15.292,3.346 4.988,1.533 9.906,3.316 14.631,5.541 4.709,2.244 9.304,4.742 13.649,7.636 4.329,2.909 8.49,6.074 12.373,9.559 15.563,13.911 26.848,32.506 31.998,52.703 5.213,20.181 4.227,41.885 -2.69,61.517 -6.851,19.662 -19.712,37.13 -36.361,49.586 -16.619,12.497 -36.964,19.939 -57.703,21.011 -20.73,1.143 -41.76,-3.973 -59.581,-14.569 -17.855,-10.541 -32.45,-26.483 -41.38,-45.171 -2.241,-4.667 -4.099,-9.508 -5.668,-14.436 -1.549,-4.939 -2.651,-10.005 -3.48,-15.107 -0.807,-5.112 -1.138,-10.284 -1.214,-15.451 -0.023,-5.173 0.393,-10.335 1.057,-15.462 l -3.261,-0.458 c -0.663,5.287 -1.067,10.609 -1.02,15.941 0.1,5.326 0.467,10.653 1.32,15.915 0.876,5.253 2.035,10.465 3.651,15.542 1.637,5.067 3.571,10.039 5.898,14.83 9.27,19.181 24.334,35.483 42.703,46.221 18.342,10.795 39.904,15.932 61.113,14.67 21.223,-1.189 41.983,-8.895 58.886,-21.723 16.936,-12.786 29.965,-30.657 36.854,-50.708 6.954,-20.019 7.853,-42.084 2.47,-62.561 C 84.216,57.882 72.683,39.081 56.86,25.059 52.911,21.546 48.684,18.36 44.288,15.434 39.877,12.524 35.216,10.016 30.442,7.766 25.652,5.537 20.67,3.755 15.62,2.227 10.55,0.748 5.369,-0.297 0.153,-1.087 Z"
             style="fill:#6ebbe4;fill-opacity:1;fill-rule:nonzero;stroke:none"
             id="path34" /></g></g></g><g
       id="g36"
       transform="translate(113.3539,339.7528)"><path
         d="M 0,0 H 40.85 V -10.669 H 12.398 V -28.547 H 35.371 V -39.216 H 12.398 V -57.573 H 42.387 V -68.242 H 0 Z"
         style="fill:#e8f0ff;fill-opacity:1;fill-rule:nonzero;stroke:none"
         id="path38" /></g><g
       id="g40"><g
         id="g42"
         clip-path="url(#clipPath46)"><g
           id="g48"
           transform="translate(169.3116,265.3583)"><path
             d="m 0,0 c 3.314,0 9.942,0.981 9.942,10.434 v 14.73 c 0,12.644 10.189,15.467 10.189,15.467 v 0.246 c 0,0 -10.189,3.314 -10.189,15.59 v 13.38 c 0,9.329 -6.628,10.434 -9.942,10.434 -1.228,0 -2.209,-0.123 -2.209,-0.123 v 11.539 c 0,0 1.595,0.123 3.804,0.123 6.997,0 21.729,-2.087 21.729,-20.745 V 60.517 c 0,-12.521 10.432,-13.011 10.432,-13.011 V 33.88 c 0,0 -10.432,-0.491 -10.432,-12.767 V 9.206 c 0,-18.781 -14.732,-20.868 -21.729,-20.868 -2.209,0 -3.804,0.245 -3.804,0.245 V 0.123 C -2.209,0.123 -1.228,0 0,0"
             style="fill:#e8f0ff;fill-opacity:1;fill-rule:nonzero;stroke:none"
             id="path50" /></g><g
           id="g52"
           transform="translate(221.602,286.4716)"><path
             d="m 0,0 c 0,12.276 -10.434,12.766 -10.434,12.766 v 13.626 c 0,0 10.434,0.491 10.434,13.012 v 10.557 c 0,18.659 14.73,20.746 21.727,20.746 2.209,0 3.806,-0.123 3.806,-0.123 V 59.045 c 0,0 -0.983,0.122 -2.209,0.122 -3.316,0 -10.068,-1.104 -10.068,-10.433 V 35.353 C 13.256,23.077 3.19,19.763 3.19,19.763 v -0.245 c 0,0 10.066,-2.823 10.066,-15.467 V -10.68 c 0,-9.452 6.752,-10.433 10.068,-10.433 1.226,0 2.209,0.122 2.209,0.122 V -32.53 c 0,0 -1.597,-0.245 -3.806,-0.245 C 14.73,-32.775 0,-30.688 0,-11.907 Z"
             style="fill:#e8f0ff;fill-opacity:1;fill-rule:nonzero;stroke:none"
             id="path54" /></g><g
           id="g56"
           transform="translate(289.6879,340.9061)"><path
             d="m 0,0 c 16.627,0 25.182,-9.323 25.182,-9.323 l -5.959,-9.228 c 0,0 -7.785,7.209 -18.647,7.209 -14.416,0 -22.875,-10.764 -22.875,-23.452 0,-12.976 8.746,-24.413 22.971,-24.413 11.822,0 19.801,8.65 19.801,8.65 l 6.535,-8.939 c 0,0 -9.42,-11.053 -26.817,-11.053 -20.855,0 -35.273,15.475 -35.273,35.563 C -35.082,-15.187 -20.088,0 0,0"
             style="fill:#e8f0ff;fill-opacity:1;fill-rule:nonzero;stroke:none"
             id="path58" /></g><g
           id="g60"
           transform="translate(329.1293,339.7528)"><path
             d="M 0,0 H 12.398 V -57.573 H 41.906 V -68.242 H 0 Z"
             style="fill:#e8f0ff;fill-opacity:1;fill-rule:nonzero;stroke:none"
             id="path62" /></g><g
           id="g64"
           transform="translate(411.3441,281.6991)"><path
             d="m 0,0 c 12.494,0 22.49,10.38 22.49,24.413 0,13.456 -9.996,23.452 -22.49,23.452 -12.496,0 -22.492,-9.996 -22.492,-23.452 C -22.492,10.38 -12.496,0 0,0 m 0,59.207 c 20.088,0 35.273,-15.282 35.273,-34.794 0,-20.088 -15.185,-35.755 -35.273,-35.755 -20.088,0 -35.275,15.667 -35.275,35.755 0,19.512 15.187,34.794 35.275,34.794"
             style="fill:#e8f0ff;fill-opacity:1;fill-rule:nonzero;stroke:none"
             id="path66" /></g><g
           id="g68"
           transform="translate(461.7445,289.0038)"><path
             d="m 0,0 c 0,0 7.4,-7.209 17.012,-7.209 5.189,0 9.9,2.691 9.9,8.266 0,12.207 -32.199,10.092 -32.199,31.046 0,11.34 9.805,19.799 22.875,19.799 13.457,0 20.377,-7.304 20.377,-7.304 L 32.582,34.505 c 0,0 -6.535,5.959 -15.09,5.959 -5.767,0 -10.285,-3.363 -10.285,-8.169 0,-12.111 32.104,-9.132 32.104,-30.949 0,-10.862 -8.266,-19.992 -22.491,-19.992 -15.187,0 -23.549,9.323 -23.549,9.323 z"
             style="fill:#e8f0ff;fill-opacity:1;fill-rule:nonzero;stroke:none"
             id="path70" /></g><g
           id="g72"
           transform="translate(513.4887,339.7528)"><path
             d="m 0,0 h 12.398 v -43.732 c 0,-9.131 5.959,-14.322 15.09,-14.322 9.131,0 15.188,5.191 15.188,14.417 V 0 h 12.398 v -43.732 c 0,-15.284 -11.053,-25.664 -27.488,-25.664 C 11.053,-69.396 0,-59.016 0,-43.732 Z"
             style="fill:#e8f0ff;fill-opacity:1;fill-rule:nonzero;stroke:none"
             id="path74" /></g><g
           id="g76"
           transform="translate(609.4457,307.746)"><path
             d="m 0,0 c 6.631,0 10.766,3.94 10.766,10.765 0,6.536 -2.789,10.573 -12.496,10.573 h -9.42 V 0 Z m -23.549,32.007 h 22.012 c 7.4,0 10.764,-0.577 13.744,-1.923 6.824,-3.075 11.148,-9.611 11.148,-18.646 0,-8.17 -4.324,-15.763 -11.533,-18.647 V -7.4 c 0,0 0.961,-0.962 2.307,-3.365 l 14.033,-25.47 H 14.32 l -13.55,25.47 h -11.92 v -25.47 h -12.399 z"
             style="fill:#e8f0ff;fill-opacity:1;fill-rule:nonzero;stroke:none"
             id="path78" /></g><g
           id="g80"
           transform="translate(650.1371,339.7528)"><path
             d="M 0,0 H 40.85 V -10.669 H 12.398 V -28.547 H 35.371 V -39.216 H 12.398 V -57.573 H 42.387 V -68.242 H 0 Z"
             style="fill:#e8f0ff;fill-opacity:1;fill-rule:nonzero;stroke:none"
             id="path82" /></g></g></g></g></svg>
